<svg width="108" height="107" viewBox="0 0 108 107" fill="none" xmlns="http://www.w3.org/2000/svg">
<g clip-path="url(#clip0_25_260)">
<path d="M83.8306 25.5783C81.4863 23.062 77.7773 23.5014 74.8615 24.5456C71.8862 25.6626 69.0996 27.3859 66.7009 29.5924L52.9555 42.3986L43.2738 39.4736L43.9851 38.8109C44.479 38.3508 44.7957 37.7411 44.8655 37.116C44.9354 36.4908 44.7527 35.9015 44.3577 35.4775L41.3789 32.2802C40.9839 31.8562 40.4089 31.6323 39.7804 31.6579C39.1518 31.6834 38.5213 31.9562 38.0275 32.4163L33.5922 36.5486L27.9284 34.8374C26.722 34.4721 25.384 34.4659 24.0645 34.8196C22.7451 35.1733 21.4963 35.8729 20.4583 36.8398L15.3117 41.6348C15.0415 41.8867 14.8217 42.1861 14.6675 42.5122C14.5132 42.8383 14.4283 43.1832 14.4185 43.523C14.4088 43.8629 14.4745 44.1895 14.6111 44.4801C14.7477 44.7708 14.9519 45.0185 15.2095 45.2061L21.0809 49.4772L18.5238 53.7289C18.2533 54.1801 18.1215 54.6832 18.1471 55.1674C18.1727 55.6515 18.3543 56.0921 18.6664 56.4271C18.9785 56.762 19.4052 56.9743 19.8863 57.034C20.3674 57.0938 20.8786 56.9979 21.3478 56.7599L27.0751 53.8428L35.0325 59.6285L27.7593 68.6444L18.925 69.0033C18.4557 69.0218 17.9814 69.1784 17.5621 69.4534C17.1427 69.7284 16.7973 70.1094 16.5696 70.548C16.3419 70.9866 16.2422 71.4631 16.2831 71.9171C16.3239 72.3711 16.5036 72.7822 16.7992 73.0981L31.6933 89.0846C31.9876 89.4018 32.3849 89.61 32.8349 89.6829C33.2849 89.7557 33.7672 89.6899 34.2208 89.4938C34.6744 89.2976 35.0789 88.98 35.3828 88.5811C35.6867 88.1823 35.8765 87.7202 35.9281 87.2534L36.9103 78.4665L46.4176 71.8486L51.6266 80.1948L48.3121 85.7018C48.0415 86.1529 47.9098 86.6561 47.9354 87.1402C47.9609 87.6244 48.1426 88.065 48.4546 88.4C48.7667 88.7349 49.1934 88.9472 49.6745 89.0069C50.1556 89.0667 50.6668 88.9708 51.136 88.7328L55.5578 86.4826L59.4003 92.6379C59.5689 92.9089 59.8014 93.1308 60.0818 93.2883C60.3622 93.4457 60.6836 93.5348 61.0237 93.5495C61.3637 93.5641 61.7143 93.5038 62.051 93.3729C62.3876 93.242 62.7022 93.0435 62.9729 92.7914L68.1195 87.9965C69.1574 87.0294 69.9435 85.8332 70.3895 84.542C70.8356 83.2509 70.9239 81.9158 70.6447 80.6866L69.3381 74.916L73.7734 70.7838C74.2672 70.3237 74.5839 69.714 74.6538 69.0889C74.7236 68.4637 74.541 67.8743 74.146 67.4504L71.1671 64.2531C70.7721 63.8291 70.1971 63.6052 69.5686 63.6308C68.9401 63.6563 68.3096 63.9291 67.8157 64.3892L67.1044 65.0519L64.8708 55.1878L78.6162 42.3816C80.7314 40.4109 82.9324 37.5241 84.2269 34.5979C85.4783 31.7597 86.1749 28.0946 83.8306 25.5783ZM69.6797 32.7897C71.2885 31.2909 73.6532 29.7447 75.8562 28.9584C78.1501 28.1352 79.4721 28.3669 80.1066 29.0479C80.7411 29.7289 80.8825 31.0604 79.8955 33.2939C78.9562 35.4292 77.2424 37.6889 75.6373 39.1843L60.7413 53.0626C60.3958 53.3845 60.134 53.7826 59.9852 54.2123C59.8364 54.642 59.8065 55.0865 59.8988 55.4959L65.9832 82.3658C66.0755 82.7752 66.0455 83.2197 65.8968 83.6494C65.748 84.0792 65.4862 84.4773 65.1407 84.7992L62.1913 87.5471L49.4148 67.0911C49.1066 66.5983 48.5925 66.2777 47.9851 66.1998C47.3778 66.1218 46.7269 66.2928 46.1751 66.6752L33.5136 75.4853C33.181 75.7161 32.8975 76.0148 32.687 76.3565C32.4764 76.6981 32.3448 77.0728 32.3033 77.4491L31.8219 81.7559L24.1186 73.4877L28.4517 73.315C28.8291 73.3 29.2113 73.1956 29.5662 73.0103C29.9212 72.825 30.2387 72.5643 30.4924 72.2499L40.175 60.2426C40.3843 59.9831 40.5455 59.6928 40.6495 59.3881C40.7535 59.0834 40.7981 58.7703 40.7809 58.4669C40.7637 58.1634 40.685 57.8754 40.5492 57.6194C40.4135 57.3634 40.2234 57.1444 39.9898 56.9749L20.4877 42.785L23.4372 40.0371C23.7827 39.7152 24.1983 39.4822 24.6375 39.3642C25.0766 39.2461 25.5221 39.2477 25.924 39.3687L52.2968 47.3364C52.6987 47.4574 53.1441 47.459 53.5833 47.3409C54.0225 47.2229 54.4381 46.9899 54.7836 46.668L69.6797 32.7897Z" fill="#051E56"/>
</g>
<defs>
<clipPath id="clip0_25_260">
<rect width="69.9184" height="81.437" fill="white" transform="translate(60) rotate(47.0259)"/>
</clipPath>
</defs>
</svg>
