<svg width="38" height="46" viewBox="0 0 32 46" fill="none" xmlns="http://www.w3.org/2000/svg">
<g clip-path="url(#clip0_30_436)">
<path d="M24.1002 11.7639V0.381683H8.04446V11.7639H0.0166016V42.9514H4.56571V45.683H6.43888V42.9514H25.4381V45.683H27.3114V42.9514H31.8604V42.0408V11.7639H24.1002ZM10.1852 3.5687H22.227V11.7639H10.1852V3.5687ZM25.7057 41.1302H6.70648V19.9592H25.7057V41.1302ZM27.5788 41.1302V18.138H4.56571V41.1302H1.88976V13.3574H29.9874V41.1302H27.5788ZM16.0723 25.878C17.4103 25.878 18.4806 24.9674 18.4806 23.8292C18.4806 22.6909 17.4103 21.7803 16.0723 21.7803C14.7343 21.7803 13.6639 22.6909 13.6639 23.8292C13.6639 24.9674 14.7343 25.878 16.0723 25.878Z" fill="#6A6B7C"/>
</g>
<defs>
<clipPath id="clip0_30_436">
<rect width="32" height="45.3013" fill="white" transform="translate(0 0.381683)"/>
</clipPath>
</defs>
</svg>
