<svg width="38" height="51" viewBox="0 0 53 51" fill="none" xmlns="http://www.w3.org/2000/svg">
<path d="M45.9263 18.0096H40.9978L29.4981 4.50238C29.4981 4.15605 29.7719 3.8097 29.7719 3.46338C29.7719 1.73169 28.6766 0 27.0338 0C25.6649 0 24.2959 1.38535 24.2959 3.46338C24.2959 3.8097 24.2959 4.15605 24.5697 4.50238L13.0699 18.0096H7.86767C4.30822 18.0096 1.57019 21.4729 1.57019 25.9753V40.5214C1.57019 45.0238 4.30822 48.4873 7.86767 48.4873H45.6525C49.2118 48.4873 51.9499 45.0238 51.9499 40.5214V25.9753C52.2237 21.4729 49.4856 18.0096 45.9263 18.0096ZM25.6649 6.5804C25.9388 6.92676 26.4862 6.92676 26.76 6.92676C27.3077 6.92676 27.5815 6.92676 27.8553 6.5804L37.7123 18.0096H15.808L25.6649 6.5804ZM50.0333 40.5214C50.0333 43.6385 48.1167 46.0629 45.6525 46.0629H7.86767C5.40343 46.0629 3.48682 43.6385 3.48682 40.5214V25.9753C3.48682 22.8583 5.40343 20.4339 7.86767 20.4339H45.6525C48.1167 20.4339 50.0333 22.8583 50.0333 25.9753V40.5214Z" fill="#6A6B7C"/>
<path d="M13.8914 29.0925V30.8242H10.8795V32.2096C11.1533 32.2096 11.4271 32.2096 11.7009 32.2096C12.5223 32.2096 13.07 32.5558 13.6175 32.9023C14.1652 33.2485 14.4389 33.9411 14.4389 34.9802C14.4389 35.6729 14.1652 36.3655 13.8914 37.0582C13.3437 37.7508 12.2485 38.0973 11.1533 38.0973C10.3319 38.0973 9.78431 38.0973 9.5105 38.0973V29.4389H13.8914V29.0925ZM10.8795 36.3655C11.1533 36.3655 11.1533 36.3655 11.4271 36.3655C11.7009 36.3655 12.2485 36.3655 12.5223 36.0194C12.7961 35.6729 12.7961 35.3267 12.7961 34.9802C12.7961 34.6341 12.5223 34.2876 12.5223 33.9411C12.2485 33.5949 11.9747 33.5949 11.4271 33.5949C11.1533 33.5949 11.1533 33.5949 10.8795 33.5949V36.3655Z" fill="#6A6B7C"/>
<path d="M16.9032 29.0927V31.8634C16.9032 33.2486 16.9032 34.6342 16.9032 35.673C17.177 34.6342 17.7246 33.5951 18.2722 32.5559L19.6412 29.0927H21.284V37.7512H19.915V34.9804C19.915 33.5951 19.915 32.5559 19.915 31.1707C19.6412 32.2098 19.0936 33.2486 18.8198 34.2877L17.4508 37.4048H15.5342V28.7463H16.9032V29.0927Z" fill="#6A6B7C"/>
<path d="M22.3793 29.7852C22.9269 29.4389 23.4745 29.0925 24.5697 29.0925C26.2126 29.0925 27.0338 30.1315 27.0338 31.5169C27.0338 32.5558 26.4864 33.2485 25.6649 33.5949C26.4864 33.5949 27.3076 34.6341 27.3076 35.6729C27.3076 37.7508 25.6649 38.4438 24.5697 38.4438C23.7483 38.4438 22.9269 38.0973 22.3793 37.7508L22.6531 36.3655C22.9269 36.712 23.7483 37.0582 24.2959 37.0582C25.1173 37.0582 25.6649 36.712 25.6649 36.0194C25.6649 34.9802 24.8435 34.9802 24.2959 34.9802H23.7483V33.5949H24.2959C25.1173 33.5949 25.6649 33.2485 25.6649 32.5558C25.6649 31.8632 25.3911 31.5169 24.5697 31.5169C24.0221 31.5169 23.4745 31.8632 22.9269 32.2096L22.3793 29.7852Z" fill="#6A6B7C"/>
<path d="M29.7719 29.0925V32.5558H32.51V29.0925H34.1527V37.7508H32.51V33.9411H29.7719V37.7508H28.1292V29.0925H29.7719Z" fill="#6A6B7C"/>
<path d="M39.6289 34.2877H37.1646V36.3657H39.9027V38.0974H35.248V29.439H39.6289V31.1706H36.8908V32.9024H39.355V34.2877H39.6289Z" fill="#6A6B7C"/>
<path d="M45.9262 37.7508C45.6524 38.0973 45.105 38.0973 44.0096 38.0973C41.5454 38.0973 40.4503 36.3655 40.4503 33.5949C40.4503 30.4779 42.0931 29.0925 44.2835 29.0925C45.105 29.0925 45.6524 29.4389 45.9262 29.4389L45.6524 31.1706C45.3788 31.1706 44.8311 30.8242 44.2835 30.8242C42.9146 30.8242 42.0931 31.8632 42.0931 33.5949C42.0931 35.3267 42.9146 36.3655 44.2835 36.3655C44.8311 36.3655 45.3788 36.3655 45.6524 36.0194L45.9262 37.7508Z" fill="#6A6B7C"/>
</svg>
