<svg width="38" height="38" viewBox="0 0 45 46" fill="none" xmlns="http://www.w3.org/2000/svg">
<g clip-path="url(#clip0_28_364)">
<path d="M11.0098 14.4431L12.2644 12.8252L23.0541 23.0719L29.3271 16.3307L30.5817 17.6789L23.0541 26.0381L11.0098 14.4431Z" fill="#6A6B7C"/>
<path d="M1.97656 23.0719C1.97656 10.3983 11.5116 0.421265 23.0541 0.421265C34.8475 0.421265 44.1316 10.668 44.1316 23.0719C44.1316 35.7454 34.5966 45.7226 23.0541 45.7226C11.5116 45.7226 1.97656 35.4757 1.97656 23.0719ZM3.73303 23.0719C3.73303 34.3973 12.2644 43.835 23.0541 43.835C33.5928 43.835 42.3751 34.667 42.3751 23.0719C42.3751 11.7466 33.8437 2.30882 23.0541 2.30882C12.5153 2.30882 3.98396 11.4769 3.73303 23.0719Z" fill="#6A6B7C"/>
</g>
<defs>
<clipPath id="clip0_28_364">
<rect width="45" height="45.3013" fill="white" transform="translate(0 0.421265)"/>
</clipPath>
</defs>
</svg>
