<svg width="38" height="50" viewBox="0 0 46 50" fill="none" xmlns="http://www.w3.org/2000/svg">
<path d="M2.9057 36.9897C2.9057 36.9897 2.61278 30.8673 2.61278 25.7652C2.61278 20.9184 1.14819 19.3878 1.14819 12.5C1.14819 6.37755 6.4207 0 14.3295 0C18.4303 0 20.7736 2.29592 21.6524 4.59183C22.5311 6.88775 22.5311 9.69388 22.5311 11.2245C22.5311 14.0306 21.6524 16.0714 21.0665 17.6021C20.4807 19.3878 19.6019 20.6633 19.6019 22.449C19.6019 27.551 19.6019 36.9897 19.6019 36.9897C19.6019 40.051 15.794 42.8573 11.4003 42.8573C6.71361 42.8573 3.1986 40.306 2.9057 36.9897ZM6.4207 5.10205C4.37028 7.14285 3.49154 9.69388 3.49154 12.2449C3.49154 18.8776 4.95612 20.153 4.95612 25.5103C4.95612 30.6122 5.24902 36.7347 5.24902 36.7347C5.24902 37.5 5.83486 38.5205 7.00654 39.2858C8.17819 40.051 9.64277 40.5613 11.4003 40.5613C13.1578 40.5613 14.6224 40.051 15.794 39.2858C16.9657 38.5205 17.5515 37.5 17.5515 36.7347C17.5515 36.7347 17.5515 27.551 17.5515 22.1939C17.5515 19.898 18.4303 18.3673 19.0161 16.5816C19.309 15.3061 20.1878 13.7755 20.1878 11.2245C20.1878 9.69388 20.1878 7.14285 19.309 5.10205C18.4303 3.06122 17.2586 1.78571 14.3295 1.78571C11.1074 2.04082 8.47109 3.31632 6.4207 5.10205Z" fill="#6A6B7C"/>
<path d="M5.542 31.3779C5.542 31.3779 3.49158 25.5104 3.49158 20.9186C3.49158 18.1124 5.83493 15.0512 7.88535 12.7553C9.93575 10.2043 12.2791 8.41857 12.2791 8.41857L13.7437 7.14307L14.9153 8.41857C14.9153 8.41857 16.6728 10.4594 18.7233 12.7553C20.4808 15.3063 22.5312 18.1124 22.8241 20.9186C22.8241 23.4696 21.0666 26.0206 19.602 27.8064C18.1374 29.5921 16.6728 30.8676 16.6728 30.8676C16.087 31.3779 14.9153 31.3779 14.0366 30.8676C13.4507 30.3574 13.4507 29.3369 14.0366 28.5716C14.0366 28.5716 14.3295 28.3166 14.9153 27.8064C15.5012 27.2961 16.087 26.5309 16.6728 25.7656C18.1374 24.2349 19.3091 21.939 19.3091 20.6635C19.3091 19.6431 18.4303 17.8573 17.2587 16.0716C16.087 14.2859 14.6224 12.7553 13.7437 11.4798C12.8649 12.2451 11.9862 13.2655 11.1074 14.2859C9.057 16.5818 7.29951 19.388 7.29951 20.6635C7.29951 22.4492 7.88535 25.0001 8.17826 26.7859C8.7641 28.8266 9.057 30.1024 9.057 30.1024C9.34994 30.8676 8.7641 31.8879 7.88535 32.1431C7.59242 32.1431 7.59242 32.1431 7.29951 32.1431C6.42077 32.3981 5.83493 31.8879 5.542 31.3779Z" fill="#6A6B7C"/>
<path d="M11.6932 9.18343V6.3773C11.6932 5.61198 12.572 4.84668 13.4508 4.84668C14.3295 4.84668 15.2082 5.61198 15.2082 6.3773V9.18343C15.2082 9.94873 14.3295 10.714 13.4508 10.714C12.572 10.714 11.6932 10.2038 11.6932 9.18343Z" fill="#6A6B7C"/>
<path d="M27.5107 44.1329C27.5107 44.1329 27.5107 34.9491 27.5107 29.5921C27.5107 27.8064 26.9249 26.5309 26.0461 24.7451C25.4603 22.9594 24.5815 20.9186 24.5815 18.3675C24.5815 16.8369 24.5815 14.0308 25.4603 11.7349C26.339 9.43899 28.6824 7.14307 32.7833 7.14307C40.6918 7.14307 45.9646 13.5206 45.9646 19.6431C45.9646 26.7859 44.2068 28.3166 44.4998 32.9084C44.4998 38.0104 44.2071 44.1329 44.2071 44.1329C44.2071 47.4491 40.3992 50.0001 36.0053 50.0001C31.3188 50.0001 27.8036 47.4491 27.5107 44.1329ZM31.6114 46.6839C32.7833 47.4491 34.2478 47.9594 36.0053 47.9594C37.7628 47.9594 39.2273 47.4491 40.3992 46.6839C41.5707 45.9186 42.1566 44.8981 42.1566 44.1329C42.1566 44.1329 42.4493 38.0104 42.4493 32.9084C42.4493 27.5511 43.9141 26.2756 43.9141 19.6431C43.9141 17.092 42.7423 14.2859 40.9848 12.5002C38.9343 10.4594 36.2983 9.18389 33.3689 9.18389C30.4399 9.18389 29.2683 10.4594 28.3895 12.5002C27.5107 14.541 27.5107 16.8369 27.5107 18.6226C27.5107 21.1737 28.0965 22.7043 28.9753 24.49C29.561 26.2756 30.4399 27.8064 30.4399 30.1024C30.4399 35.2044 30.4399 44.6431 30.4399 44.6431C29.8539 44.8981 30.4399 45.9186 31.6114 46.6839Z" fill="#6A6B7C"/>
<path d="M39.5208 39.541C38.642 39.286 38.056 38.5205 38.349 37.5002C38.349 37.5002 38.9349 36.2247 39.2279 34.1837C39.8135 32.3982 40.1065 29.8472 40.1065 28.0615C40.1065 27.041 39.2279 25.2552 37.7634 23.4696C36.2985 21.6839 34.834 19.8981 33.6625 18.8777C33.0765 19.643 32.1979 20.6635 31.319 21.6839C29.5616 23.9798 27.804 26.786 28.097 28.0615C28.097 30.3572 31.0261 33.9287 32.4906 35.2042C33.0765 35.7145 33.3695 35.9695 33.3695 35.9695C33.9554 36.4797 33.9554 37.5002 33.3695 38.2655C32.7836 38.7757 31.612 38.7757 31.0261 38.2655C31.0261 38.2655 29.5616 36.99 28.097 35.2042C26.6324 33.4185 24.8749 30.8675 24.8749 28.3165C24.8749 25.5105 26.9253 22.7043 28.9756 20.1533C30.7331 17.6022 32.7836 15.8165 32.7836 15.8165L33.9554 14.541L35.4199 15.8165C35.4199 15.8165 37.4704 17.8573 39.8135 20.1533C41.864 22.7043 44.2074 25.5105 44.5003 28.3165C44.5003 32.9082 42.4499 38.7757 42.1569 38.7757C41.864 39.541 41.2783 39.796 40.3994 39.796C39.8135 39.541 39.5208 39.541 39.5208 39.541Z" fill="#6A6B7C"/>
<path d="M31.9044 16.5816V13.7755C31.9044 13.0102 32.7833 12.2449 33.6619 12.2449C34.5408 12.2449 35.4194 13.0102 35.4194 13.7755V16.5816C35.4194 17.3469 34.5408 18.1122 33.6619 18.1122C32.7833 18.1122 31.9044 17.3469 31.9044 16.5816Z" fill="#6A6B7C"/>
</svg>
