<svg width="38" height="38" viewBox="0 0 37 38" fill="none" xmlns="http://www.w3.org/2000/svg">
<path d="M13.931 14.5496C14.1363 14.7731 14.3415 14.7731 14.5467 14.7731C14.752 14.7731 14.9572 14.7731 15.1624 14.5496C15.3677 14.1025 15.3677 13.6555 15.1624 13.2084C14.1363 12.3143 13.931 11.6437 13.931 11.4202C13.931 10.9731 14.3415 10.079 14.9572 9.18487C15.5729 8.29075 16.3939 7.1731 16.5991 5.83193C16.5991 4.93781 16.3939 4.26722 15.9834 3.82016C15.7782 3.3731 15.3677 2.92604 14.9572 2.25546C14.752 1.80839 14.1363 1.58486 13.7258 2.03192C13.3153 2.25546 13.11 2.92604 13.5205 3.3731C13.931 4.04369 14.3415 4.49075 14.5467 4.93781C14.752 5.38487 14.752 5.6084 14.752 5.83193C14.5467 6.72604 13.931 7.39663 13.3153 8.29075C12.6996 9.18487 12.0838 10.3025 12.0838 11.6437C12.2891 12.3143 12.9048 13.4319 13.931 14.5496ZM19.883 16.7849C20.0882 17.0084 20.2934 17.0084 20.4987 17.0084C20.7039 17.0084 20.9091 17.0084 21.1144 16.7849C21.3196 16.3378 21.3196 15.8907 21.1144 15.4437C20.2934 14.5496 20.0882 14.1025 20.0882 13.6555C20.0882 13.2084 20.4987 12.3143 21.1144 11.4202C21.7301 10.526 22.5511 9.4084 22.7564 8.06722C22.7564 7.1731 22.5511 6.50251 22.1406 6.05546C21.9354 5.6084 21.5249 5.16134 21.1144 4.49075C20.9091 4.04369 20.2934 3.82016 19.883 4.26722C19.4725 4.49075 19.2672 5.16134 19.6777 5.6084C20.0882 6.27899 20.4987 6.72604 20.7039 7.1731C20.9091 7.62016 20.9091 7.84369 20.9091 8.06722C20.7039 8.96134 20.0882 9.63193 19.4725 10.526C18.8568 11.4202 18.241 12.5378 18.241 13.879C18.241 14.7731 18.8568 15.8907 19.883 16.7849ZM25.835 12.7613C26.0402 12.9849 26.2453 12.9849 26.4507 12.9849C26.6558 12.9849 26.8611 12.9849 27.0663 12.7613C27.2716 12.3143 27.2716 11.8672 27.0663 11.4202C26.2453 10.526 26.0402 10.079 26.0402 9.63193C26.0402 9.18487 26.4507 8.29075 27.0663 7.39663C27.6821 6.50252 28.5031 5.38487 28.7083 4.04369C28.7083 3.14957 28.5031 2.47899 28.0926 2.03192C27.8873 1.58486 27.4768 1.1378 27.0663 0.467214C26.8611 0.0201561 26.2453 -0.203374 25.835 0.243685C25.4245 0.467214 25.2192 1.1378 25.6297 1.58486C26.0402 2.25546 26.4507 2.70252 26.6558 3.14957C26.8611 3.59663 26.8611 3.82016 26.8611 4.04369C26.6558 4.93781 26.0402 5.6084 25.4245 6.50252C24.8087 7.39663 24.193 8.51428 24.193 9.85546C24.193 10.7496 24.6035 11.8672 25.835 12.7613ZM7.36334 18.7966H1.41138L9.41573 35.7848H28.2978L28.5031 35.3378L36.3021 18.7966H10.6472H7.36334ZM27.2716 33.9966H10.4419L4.07949 20.5849H33.4289L27.2716 33.9966Z" fill="#6A6B7C"/>
</svg>
