<svg width="38" height="41" viewBox="0 0 48 41" fill="none" xmlns="http://www.w3.org/2000/svg">
<g clip-path="url(#clip0_28_333)">
<path d="M14.5495 0.415161C7.40868 0.415161 1.56946 6.06908 1.56946 13.0338C1.56946 27.3172 18.1021 34.7974 23.6782 39.3197L24.3916 39.9139L25.1047 39.3197C30.6809 34.7974 47.2135 27.3172 47.2135 13.0338C47.2135 6.06908 41.3742 0.415161 34.2334 0.415161C30.2663 0.415161 26.7717 2.2197 24.3916 4.95928C22.0112 2.2197 18.5166 0.415161 14.5495 0.415161ZM14.5495 2.65226C18.2759 2.65226 21.5165 4.50049 23.4286 7.30123L24.3916 8.69942L25.3543 7.30123C27.2665 4.50049 30.507 2.65226 34.2334 2.65226C40.1486 2.65226 44.9312 7.28815 44.9312 13.0338C44.9312 25.2242 30.9394 32.0579 24.3916 37.0826C17.8435 32.0579 3.85165 25.2242 3.85165 13.0338C3.85165 7.28815 8.63003 2.65226 14.5495 2.65226Z" fill="#6A6B7C"/>
</g>
<defs>
<clipPath id="clip0_28_333">
<rect width="48" height="40.2679" fill="white" transform="translate(0 0.415161)"/>
</clipPath>
</defs>
</svg>
