<svg width="38" height="45" viewBox="0 0 54 45" fill="none" xmlns="http://www.w3.org/2000/svg">
<path d="M46.047 8.14481H35.5911C35.3589 8.14481 35.1264 8.14481 35.1264 8.43567L23.0442 20.0711V13.3808C23.0442 11.3445 22.1148 9.59924 20.7207 9.01745C22.1148 8.43567 23.0442 6.69038 23.0442 4.65416C23.0442 2.0362 21.4178 0 19.3266 0C17.2354 0 15.609 2.0362 15.609 4.65416C15.609 6.69038 16.5384 8.43567 17.9325 9.01745C16.5384 9.59924 15.609 11.3445 15.609 13.3808V27.3433L13.0531 29.9612H6.5473C3.29439 29.9612 0.738525 33.1608 0.738525 37.2333C0.738525 41.3058 3.29439 44.5056 6.5473 44.5056H16.3061C16.5384 44.5056 16.7707 44.5056 16.7707 44.2148L38.6117 22.6891H46.2792C49.5323 22.6891 52.0881 19.4893 52.0881 15.4169C51.8559 11.3445 49.2999 8.14481 46.047 8.14481ZM17.0031 4.3633C17.0031 2.90885 17.9325 1.74532 19.0943 1.74532C20.256 1.74532 21.1854 2.90885 21.1854 4.3633C21.1854 5.8177 20.256 6.98127 19.0943 6.98127C18.1649 6.98127 17.0031 5.8177 17.0031 4.3633ZM19.3266 10.7628C20.4884 10.7628 21.4178 11.9263 21.4178 13.3808V21.8164L17.2354 25.8888V13.3808C17.0031 11.9263 18.1649 10.7628 19.3266 10.7628ZM46.047 20.362H38.1471C37.9146 20.362 37.6824 20.362 37.6824 20.6529L15.8413 42.1785H6.31495C3.99143 42.1785 2.13263 39.8514 2.13263 36.9424C2.13263 34.0335 3.99143 31.7065 6.31495 31.7065H13.0531C13.2855 31.7065 13.5178 31.7065 13.5178 31.4157L35.8235 9.8901H45.8146C48.1381 9.8901 49.997 12.2172 49.997 15.126C50.2292 18.0349 48.3706 20.362 46.047 20.362ZM40.9353 33.1608C40.7028 32.8699 40.7028 32.8699 40.7028 32.579H40.4706H40.2382L34.1971 33.1608C33.7324 33.1608 33.2678 33.7426 33.5 34.3244C33.5 34.9062 33.9646 35.1971 34.4293 35.1971L37.6824 34.9062L30.4793 41.5967C30.0147 41.8876 30.0147 42.7603 30.2471 43.0512C30.4793 43.3421 30.7118 43.3421 30.9442 43.3421C31.1764 43.3421 31.4089 43.3421 31.4089 43.0512L38.3793 36.3606L37.6824 41.0149C37.45 41.5967 37.9146 42.1785 38.3793 42.1785C38.8442 42.4694 39.3088 41.8876 39.3088 41.3058L40.9353 33.4517V33.1608Z" fill="#6A6B7C"/>
</svg>
