<svg width="60" height="60" viewBox="0 0 85 73" fill="none" xmlns="http://www.w3.org/2000/svg">
<g clip-path="url(#clip0_35_1010)">
<path d="M23.8778 0.404493C23.6283 0.445604 23.3911 0.531486 23.1808 0.656809C22.8512 0.854705 15.0682 5.61161 15.0682 12.2547V17.729C14.7807 18.1817 14.5002 18.6356 14.2534 19.1019C12.8048 14.2955 9.84999 12.1273 9.68452 12.0123C9.48499 11.8734 9.25472 11.7729 9.0085 11.7172C8.76228 11.6615 8.50557 11.6518 8.25488 11.6889C8.00419 11.7259 7.76506 11.8088 7.55287 11.9323C7.34069 12.0557 7.16014 12.2169 7.02284 12.4056C5.22362 14.8632 3.58426 19.2911 4.23916 23.1983C4.74401 26.2063 7.28228 28.7394 11.4627 30.4672C11.428 31.1916 11.4102 31.9166 11.4094 32.6416C11.4094 32.6911 11.4164 32.7381 11.4164 32.7863C7.77731 30.3547 2.91394 29.4963 2.60261 29.4431C2.31731 29.3944 2.02294 29.4066 1.74405 29.4786C1.46515 29.5506 1.20981 29.6803 0.999314 29.857C0.788817 30.0337 0.629262 30.2523 0.533951 30.4944C0.43864 30.7365 0.410336 30.9952 0.451397 31.2489C0.493467 31.5186 1.5214 37.8834 4.41025 41.6186C6.5222 44.3471 9.58074 45.1313 12.1232 45.1313C12.9562 45.1313 13.6854 45.0323 14.3502 44.9049C14.8312 45.8672 15.3669 46.7973 15.9531 47.7002C14.8256 47.3786 13.6812 47.1609 12.5636 47.1609C8.81505 47.1609 5.19136 48.8987 5.03991 48.9729C4.64199 49.1664 4.33981 49.4834 4.19209 49.8624C4.04437 50.2414 4.06164 50.6552 4.24057 51.0236C4.38781 51.3266 7.94699 58.4533 15.1888 58.4533C19.508 58.4533 22.4025 56.932 23.9451 55.8288C25.3279 56.7708 26.7548 57.6613 28.2223 58.4979C21.2105 58.8949 17.5924 62.0105 17.4325 62.1527C17.2417 62.3218 17.0957 62.5261 17.0049 62.7508C16.9142 62.9755 16.8809 63.2152 16.9076 63.4526C16.9343 63.69 17.0202 63.9193 17.1592 64.1239C17.2982 64.3286 17.4869 64.5036 17.7116 64.6363C17.9542 64.7773 23.7277 68.1329 29.7018 68.1329C34.0869 68.1329 36.6322 65.6543 37.907 63.867C38.5801 64.2591 39.221 64.64 39.7468 64.9826C37.5732 66.8688 36.1736 68.807 35.3098 70.7797C35.2174 70.9785 35.171 71.1916 35.1733 71.4064C35.1755 71.6212 35.2264 71.8335 35.3228 72.0308C35.4193 72.228 35.5594 72.4063 35.735 72.5552C35.9106 72.7041 36.1181 72.8206 36.3454 72.8978C36.5727 72.975 36.8152 73.0114 37.0587 73.0049C37.3021 72.9984 37.5417 72.9491 37.7633 72.8599C37.9849 72.7707 38.184 72.6434 38.3491 72.4854C38.5141 72.3274 38.6418 72.142 38.7245 71.9399C39.4608 70.259 40.556 68.7179 42.5053 67.0915C44.4546 68.7179 45.5484 70.259 46.2846 71.9399C46.4661 72.3306 46.8139 72.643 47.2534 72.8102C47.693 72.9774 48.1893 72.986 48.636 72.8342C49.0827 72.6825 49.4441 72.3824 49.6429 71.9983C49.8417 71.6143 49.862 71.1768 49.6994 70.7797C48.8355 68.807 47.436 66.8688 45.2623 64.9826C45.7882 64.6413 46.4277 64.2579 47.0994 63.867C48.3769 65.6543 50.9222 68.1341 55.3088 68.1341C61.2828 68.1341 67.0549 64.7773 67.299 64.6363C67.5237 64.5036 67.7123 64.3286 67.8513 64.1239C67.9903 63.9193 68.0763 63.69 68.1029 63.4526C68.1296 63.2152 68.0964 62.9755 68.0056 62.7508C67.9149 62.5261 67.7688 62.3218 67.578 62.1527C67.4167 62.0105 63.7987 58.8949 56.7883 58.4979C58.2557 57.6613 59.6827 56.7708 61.0655 55.8288C62.6081 56.9333 65.4997 58.4533 69.8204 58.4533C77.0622 58.4533 80.6227 51.3279 80.77 51.0236C80.9492 50.6553 80.9667 50.2413 80.8189 49.8622C80.6712 49.4832 80.3688 49.1662 79.9706 48.9729C79.8178 48.8987 76.1941 47.1609 72.447 47.1609C71.3293 47.1609 70.1864 47.3774 69.0589 47.6965C69.6465 46.7961 70.1808 45.866 70.6604 44.9049C71.3906 45.052 72.1369 45.1279 72.8859 45.1313C75.4284 45.1313 78.4884 44.3471 80.5989 41.6186C83.4878 37.8834 84.5171 31.5186 84.5578 31.2489C84.5982 30.9954 84.5693 30.7371 84.4734 30.4954C84.3775 30.2538 84.2175 30.0359 84.0066 29.86C83.7954 29.6842 83.5402 29.5549 83.2617 29.4825C82.9832 29.4101 82.6893 29.3966 82.4037 29.4431C82.091 29.4951 77.2318 30.3535 73.5927 32.7826C73.5927 32.7356 73.5997 32.6899 73.5997 32.6416C73.5997 31.9131 73.5843 31.1908 73.5507 30.471C77.7002 28.7728 80.2679 26.2261 80.7728 23.1983C81.4277 19.2899 79.7869 14.862 77.9877 12.4068C77.8501 12.2185 77.6691 12.0577 77.4565 11.935C77.2439 11.8122 77.0045 11.7303 76.7536 11.6944C76.5037 11.6569 76.2476 11.6658 76.0018 11.7206C75.756 11.7753 75.5259 11.8747 75.326 12.0123C75.1592 12.1273 72.2044 14.2955 70.7572 19.1019C70.5045 18.6357 70.2327 18.1778 69.9424 17.729V12.2547C69.9424 5.61285 62.1565 0.854705 61.8255 0.656809C61.617 0.530566 61.381 0.443967 61.1325 0.402517C60.884 0.361067 60.6285 0.365673 60.3821 0.416042C60.1357 0.466411 59.9039 0.561442 59.7014 0.695092C59.499 0.828742 59.3302 0.998088 59.2059 1.19236C59.0671 1.40634 55.8361 6.50709 57.7279 11.3159C59.4808 15.7735 65.2866 18.6344 66.7548 19.3035C67.2288 20.053 67.6411 20.8322 67.9945 21.6387C65.661 19.8935 63.1325 18.8879 61.5395 18.2633C61.2613 18.1528 60.9561 18.1056 60.6519 18.126C60.3477 18.1465 60.0542 18.234 59.7983 18.3804C59.5423 18.5269 59.3322 18.7277 59.187 18.9644C59.0419 19.201 58.9664 19.4661 58.9675 19.7351C58.9675 22.1791 58.9675 25.5273 61.5184 28.9546C63.8281 32.0628 67.686 33.3825 69.8737 33.9119C69.7891 35.5824 69.5309 37.2426 69.1024 38.8716C68.3353 37.3466 67.1377 35.9267 65.4563 34.6453C65.1145 34.3851 64.6757 34.2457 64.2244 34.2539C63.7731 34.2621 63.3412 34.4174 63.0119 34.6898C62.8465 34.8259 58.9675 38.0887 58.9675 43.7868C58.9675 46.3137 60.5873 48.7317 62.3332 50.4472C62.1831 50.5957 62.0499 50.7565 61.8971 50.9012C60.8285 51.9042 59.37 52.942 57.7559 53.9797C58.7642 51.4021 58.9507 49.0546 58.9633 48.8777C58.9796 48.6422 58.9372 48.4064 58.8391 48.1869C58.741 47.9673 58.5896 47.7694 58.3956 47.607C58.2015 47.4446 57.9695 47.3216 57.7158 47.2467C57.4621 47.1717 57.1929 47.1467 56.9271 47.1733C56.6579 47.2005 50.308 47.887 46.5413 51.5146C43.4757 54.4695 44.3115 59.0334 44.9566 61.2202C44.1112 61.7143 43.2932 62.2439 42.5053 62.807C41.7164 62.2443 40.8974 61.7151 40.0512 61.2214C40.6962 59.0347 41.5348 54.4707 38.4679 51.5171C34.7012 47.8882 28.3527 47.2018 28.082 47.1758C27.8159 47.1492 27.5464 47.174 27.2922 47.2483C27.0379 47.3226 26.805 47.4447 26.6096 47.6062C26.2169 47.9352 26.0136 48.4015 26.0458 48.8802C26.0598 49.0558 26.2506 51.4033 27.2322 53.9648C25.6279 52.9333 24.1751 51.9005 23.1135 50.9024C22.9592 50.7577 22.8274 50.5957 22.6774 50.4485C24.4233 48.7342 26.043 46.3174 26.043 43.7881C26.043 38.0899 22.1613 34.8284 21.9944 34.6911C21.665 34.4195 21.2334 34.2648 20.7826 34.2566C20.3318 34.2484 19.8934 34.3872 19.5515 34.6465C17.8687 35.9267 16.6711 37.3453 15.904 38.8691C15.4767 37.2413 15.2194 35.5824 15.1355 33.9131C17.3232 33.3837 21.1852 32.064 23.4949 28.9558C26.043 25.5285 26.043 22.1804 26.043 19.7364C26.0435 19.4674 25.9677 19.2027 25.8224 18.9662C25.6772 18.7297 25.4672 18.5291 25.2115 18.3825C24.9559 18.2359 24.6627 18.1481 24.3587 18.1271C24.0547 18.1061 23.7495 18.1525 23.4711 18.2621C21.8794 18.8854 19.3482 19.891 17.0146 21.6362C17.368 20.831 17.7817 20.053 18.2543 19.3047C19.7226 18.6344 25.5297 15.7748 27.2827 11.3172C29.1731 6.50832 25.942 1.40757 25.8032 1.1936C25.6151 0.901937 25.3285 0.669289 24.9834 0.528067C24.6382 0.386844 24.2518 0.344079 23.8778 0.40573V0.404493Z" fill="#DDC075"/>
</g>
<defs>
<clipPath id="clip0_35_1010">
<rect width="84.1414" height="72.9739" fill="white" transform="translate(0.434326)"/>
</clipPath>
</defs>
</svg>
