<svg width="94" height="102" viewBox="0 0 94 102" fill="none" xmlns="http://www.w3.org/2000/svg">
<path d="M36.0331 17.8701C36.9673 14.0868 34.8982 10.198 31.4116 9.18433C27.925 8.17063 24.3412 10.4159 23.407 14.1992C22.4728 17.9826 24.542 21.8713 28.0286 22.885C31.5152 23.8987 35.099 21.6535 36.0331 17.8701Z" fill="#051E56"/>
<path d="M44.7234 30.8207C43.6219 30.502 42.5203 31.1395 42.1531 32.4145L36.6453 54.4879C35.7641 58.3926 32.6062 61.2614 29.0078 61.5801C28.7141 61.5801 28.2734 61.5801 28.2734 61.5801H20.3422C19.1672 61.5801 18.2859 62.5364 18.2859 63.8114C18.3594 65.166 19.2406 66.1223 20.4156 66.1223H28.3469C28.3469 66.1223 28.9344 66.1223 29.4484 66.0426C34.8828 65.5645 39.3625 61.4207 40.7578 55.6035L46.1922 33.5301C46.4859 32.4145 45.825 31.2192 44.7234 30.8207Z" fill="#051E56"/>
<path d="M28.5672 57.9942C31.0641 57.8348 33.0469 55.9223 33.6344 53.3723L39.2891 30.6614C39.8031 28.5098 38.6281 26.2785 36.6453 25.8004C36.4984 25.8004 35.8375 25.7207 35.8375 25.7207C30.55 25.1629 25.4828 28.7489 24.0875 34.566C24.0875 34.6457 23.8672 35.5223 23.7938 35.9207C22.6922 40.4629 22.1047 44.9254 21.8109 49.3879H10.8687C9.91406 49.3879 8.8125 49.866 8.00469 50.7426C7.19687 51.5395 7.49062 54.3285 7.49062 55.4442V75.9239C7.49062 78.3942 8.59219 78.7926 10.8687 78.7926C13.1453 78.7926 14.9812 76.8004 14.9812 74.3301V57.9942H28.0531H28.5672Z" fill="#051E56"/>
<path d="M75.515 17.833C76.4492 14.0497 74.3801 10.1609 70.8934 9.14722C67.4068 8.13353 63.8231 10.3788 62.8889 14.1621C61.9547 17.9454 64.0238 21.8342 67.5104 22.8479C70.9971 23.8616 74.5808 21.6164 75.515 17.833Z" fill="#051E56"/>
<path d="M84.1594 30.8207C83.0578 30.502 81.9562 31.1395 81.5891 32.4145L76.0812 54.4879C75.2 58.3926 72.0422 61.2614 68.4437 61.5801C68.15 61.5801 67.7094 61.5801 67.7094 61.5801H59.7781C58.6031 61.5801 57.7219 62.5364 57.7219 63.8114C57.7953 65.166 58.6766 66.1223 59.8516 66.1223H67.7828C67.7828 66.1223 68.3703 66.1223 68.8844 66.0426C74.3187 65.5645 78.7984 61.4207 80.1937 55.6035L85.6281 33.5301C85.9953 32.4145 85.3344 31.2192 84.1594 30.8207Z" fill="#051E56"/>
<path d="M68.0031 57.9942C70.5 57.8348 72.4828 55.9223 73.0703 53.3723L78.725 30.6614C79.2391 28.5098 78.0641 26.2785 76.0813 25.8004C75.9344 25.8004 75.2734 25.7207 75.2734 25.7207C69.9859 25.1629 64.9188 28.7489 63.5234 34.566C63.5234 34.6457 63.3031 35.5223 63.2297 35.9207C62.1281 40.4629 61.5406 44.9254 61.2469 49.3879H50.3781C49.4234 49.3879 48.3219 49.866 47.5141 50.7426C46.7062 51.5395 46.2656 52.7348 46.2656 53.8504V74.3301C46.2656 76.8004 48.1016 78.7926 50.3781 78.7926C52.6547 78.7926 54.4906 76.8004 54.4906 74.3301V57.9942H67.5625H68.0031Z" fill="#051E56"/>
</svg>
