<svg width="38" height="38" viewBox="0 0 40 47" fill="none" xmlns="http://www.w3.org/2000/svg">
<g clip-path="url(#clip0_28_361)">
<path d="M30.0804 0.465875C29.8081 0.526586 29.5899 0.776574 29.5135 1.1087C29.4369 1.4444 29.5162 1.80152 29.7174 2.03723L36.3841 10.4368H3.3459C3.32321 10.4368 3.30055 10.4368 3.27788 10.4368C2.87821 10.4618 2.56643 10.8904 2.58627 11.3939C2.60611 11.8975 2.94624 12.2903 3.3459 12.2653H36.3841L29.7174 20.6649C29.5021 20.8863 29.4028 21.2399 29.4652 21.5827C29.5275 21.922 29.7402 22.1898 30.0093 22.2684C30.2814 22.347 30.5622 22.222 30.7379 21.9505L38.6517 12.0082L39.1505 11.351L38.6517 10.6939L30.7379 0.751575C30.5876 0.548014 30.3694 0.444448 30.1483 0.465875C30.1256 0.465875 30.1029 0.465875 30.0804 0.465875ZM11.1916 24.2362C11.0329 24.2719 10.8912 24.3719 10.7835 24.5218L2.86971 34.4643L2.37085 35.1215L2.86971 35.7784L10.7835 45.7208C10.9592 45.9922 11.2398 46.1172 11.5119 46.0387C11.7812 45.96 11.9938 45.6922 12.0561 45.3529C12.1185 45.01 12.0193 44.6565 11.8039 44.4352L5.13725 36.0356H38.1754C38.4362 36.0392 38.68 35.8678 38.8131 35.582C38.9436 35.2963 38.9436 34.9464 38.8131 34.6606C38.68 34.3749 38.4362 34.2034 38.1754 34.2071H5.13725L11.8039 25.8075C12.0391 25.5325 12.1015 25.0968 11.9597 24.7361C11.8209 24.3719 11.5062 24.1719 11.1916 24.2362Z" fill="#6A6B7C"/>
</g>
<defs>
<clipPath id="clip0_28_361">
<rect width="38.6629" height="45.5987" fill="white" transform="translate(0.707886 0.463104)"/>
</clipPath>
</defs>
</svg>
