<svg width="38" height="49" viewBox="0 0 36 41" fill="none" xmlns="http://www.w3.org/2000/svg">
<path d="M29.8292 20.1702H13.697L9.07241 5.10184C8.53465 3.28639 6.27616 2.28788 4.23274 2.74174C2.18934 3.1956 0.898751 5.01107 1.43649 6.82653L6.70634 24.3457C7.02899 25.435 7.88937 26.1611 9.07241 26.6151C9.17994 26.6151 9.2875 26.7058 9.2875 26.7058C9.71768 26.7966 10.1479 26.8873 10.5781 26.8873H29.7216C31.8725 26.8873 33.7009 25.3441 33.7009 23.5288C33.7009 21.7134 32.0876 20.1702 29.8292 20.1702Z" stroke="#6A6B7C" stroke-width="1.2304" stroke-miterlimit="10" stroke-linecap="round" stroke-linejoin="round"/>
<path d="M30.6895 26.7966C30.1517 28.2489 28.5384 29.2474 26.7103 29.2474H14.2347C12.4063 29.2474 10.7931 28.2489 10.2554 26.8873" stroke="#6A6B7C" stroke-width="1.2304" stroke-miterlimit="10" stroke-linecap="round" stroke-linejoin="round"/>
<path d="M20.4725 29.1568V38.3248" stroke="#6A6B7C" stroke-width="1.2304" stroke-miterlimit="10" stroke-linecap="round" stroke-linejoin="round"/>
<path d="M14.0195 38.3248H26.9252" stroke="#6A6B7C" stroke-width="1.2304" stroke-miterlimit="10" stroke-linecap="round" stroke-linejoin="round"/>
<path d="M11.2234 12.0914H25.4198" stroke="#6A6B7C" stroke-width="1.2304" stroke-miterlimit="10" stroke-linecap="round" stroke-linejoin="round"/>
</svg>
