<svg width="38" height="48" viewBox="0 0 38 54" fill="none" xmlns="http://www.w3.org/2000/svg">
<path d="M28.9722 30.7947H13.7128L9.33846 13.258C8.8298 11.1452 6.69348 9.98309 4.76064 10.5113C2.82778 11.0395 1.60702 13.1524 2.11566 15.2652L7.1004 35.654C7.4056 36.9218 8.21942 37.7669 9.33846 38.2952C9.44018 38.2952 9.54192 38.4008 9.54192 38.4008C9.94882 38.5065 10.3557 38.612 10.7627 38.612H28.8704C30.905 38.612 32.6344 36.8161 32.6344 34.7034C32.6344 32.5906 31.1086 30.7947 28.9722 30.7947Z" stroke="#6A6B7C" stroke-width="1.2304" stroke-miterlimit="10" stroke-linecap="round" stroke-linejoin="round"/>
<path d="M29.786 38.5068C29.2774 40.197 27.7516 41.3591 26.0222 41.3591H14.2215C12.4921 41.3591 10.9662 40.197 10.4575 38.6123" stroke="#6A6B7C" stroke-width="1.2304" stroke-miterlimit="10" stroke-linecap="round" stroke-linejoin="round"/>
<path d="M20.1216 41.2529V51.9229" stroke="#6A6B7C" stroke-width="1.2304" stroke-miterlimit="10" stroke-linecap="round" stroke-linejoin="round"/>
<path d="M14.0181 51.9231H26.2256" stroke="#6A6B7C" stroke-width="1.2304" stroke-miterlimit="10" stroke-linecap="round" stroke-linejoin="round"/>
<path d="M11.373 21.3923H24.8014" stroke="#6A6B7C" stroke-width="1.2304" stroke-miterlimit="10" stroke-linecap="round" stroke-linejoin="round"/>
<path d="M30.997 2.46897L32.5204 5.89439L36.0708 6.29333C36.7066 6.4309 36.9582 7.07747 36.4548 7.61398L33.7922 10.1039L34.5472 13.7908C34.6798 14.4511 34.044 14.85 33.5272 14.5749L30.3612 12.7452L27.195 14.5886C26.6918 14.85 26.0558 14.4511 26.175 13.8045L26.9302 10.1177L24.2674 7.60023C23.764 7.20128 24.0158 6.41715 24.6516 6.27958L28.2018 5.88064L29.7254 2.46897C29.977 1.94622 30.7454 1.94622 30.997 2.46897Z" stroke="#6A6B7C" stroke-linejoin="round"/>
</svg>
