<svg width="83" height="63" viewBox="0 0 83 63" fill="none" xmlns="http://www.w3.org/2000/svg">
<path d="M68.1162 27.7676L67.1856 26.7384C66.1621 25.6087 66.1466 24.0774 67.1546 22.9352L68.0696 21.8934C69.4654 20.2994 68.814 18.0652 66.6894 17.1363L65.2936 16.5338C63.7737 15.8686 62.9363 14.5005 63.2309 13.1198L63.4946 11.8521C63.8978 9.91911 62.1143 8.13677 59.695 8.06146L58.1131 8.01125C56.3916 7.9485 54.9028 7.00712 54.422 5.66409L53.9878 4.43402C53.3209 2.55127 50.762 1.57224 48.5287 2.35044L47.0709 2.85251C45.489 3.40479 43.6435 3.07844 42.4804 2.03665L41.4258 1.08272C39.8129 -0.373271 36.9748 -0.360719 35.3929 1.12038L34.3538 2.08686C33.2217 3.1412 31.3762 3.49265 29.7788 2.96548L28.3209 2.47596C26.0877 1.72286 23.5443 2.73955 22.9084 4.6223L22.4897 5.85236C22.0399 7.19539 20.5666 8.16187 18.8452 8.24974L17.2633 8.32505C14.8439 8.43801 13.0914 10.2455 13.5412 12.1659L13.8204 13.421C14.1305 14.8017 13.3241 16.1824 11.8197 16.8602L10.4395 17.4878C8.31478 18.4417 7.70995 20.6759 9.13674 22.2574L10.0673 23.2867C11.0908 24.4163 11.1063 25.9476 10.0983 27.0898L9.18327 28.1316C7.78749 29.7257 8.43885 31.9599 10.5635 32.8887L11.9593 33.4912C13.4792 34.1564 14.3166 35.5245 14.022 36.9052L13.7583 38.173C13.3551 40.1059 15.1386 41.8882 17.5579 41.9636L19.1398 42.0138C20.8613 42.0765 22.3501 43.0179 22.8309 44.3609L23.2651 45.591C23.932 47.4738 26.4909 48.4528 28.7242 47.6746L30.182 47.1725C31.7639 46.6202 33.6094 46.9466 34.7726 47.9884L35.8271 48.9423C37.44 50.3983 40.2781 50.3857 41.86 48.9046L42.8991 47.9382C44.0312 46.8838 45.8767 46.5324 47.4741 47.0595L48.9319 47.5491C51.1652 48.3022 53.7086 47.2855 54.3445 45.4027L54.7632 44.1727C55.213 42.8296 56.6863 41.8631 58.4077 41.7753L59.9896 41.7C62.409 41.587 64.1615 39.7796 63.7117 37.8592L63.4325 36.604C63.1224 35.2233 63.9288 33.8426 65.4332 33.1648L66.8134 32.5372C68.9381 31.5959 69.543 29.3491 68.1162 27.7676ZM38.6032 41.3234C27.4835 41.3234 18.4419 34.0058 18.4419 25.0062C18.4419 16.0067 27.4835 8.68904 38.6032 8.68904C49.7229 8.68904 58.7644 16.0067 58.7644 25.0062C58.7644 34.0058 49.7229 41.3234 38.6032 41.3234Z" fill="#051E56"/>
<path d="M59.6639 45.3274L58.966 45.365L58.6248 46.3692C57.6168 49.3439 54.2514 51.415 50.4518 51.415C49.3352 51.415 48.2495 51.2392 47.226 50.9003L46.0473 50.4987L45.6751 50.8501L51.4288 59.3225C51.77 59.812 52.3593 60.1635 53.0417 60.2639L59.9741 61.3057C61.0597 61.4689 62.1453 60.9919 62.564 60.1509L65.185 54.8541C65.4486 54.327 65.4021 53.737 65.0609 53.2475L59.6639 45.3274Z" fill="#051E56"/>
<path d="M30.4611 50.9882C29.391 51.3648 28.2744 51.553 27.1113 51.553C23.3582 51.553 20.0083 49.5197 18.9692 46.6077L18.6125 45.6161L17.3718 45.5784L12.1609 53.2601C11.8197 53.7496 11.7732 54.3395 12.0368 54.8667L14.6578 60.1635C15.0765 61.0044 16.1621 61.4814 17.2477 61.3182L24.1801 60.2765C24.8625 60.176 25.4518 59.8246 25.793 59.3351L31.7018 50.6368L31.6553 50.5991L30.4611 50.9882Z" fill="#051E56"/>
<path d="M50.2192 24.09C50.2192 24.09 51.3823 22.6214 49.878 21.5043C48.0014 20.1111 42.8991 21.0399 42.8991 21.0399C42.5424 21.0901 42.1702 21.1529 41.7669 21.2282C41.7669 21.2282 39.999 21.8934 41.7669 17.5631C43.5349 13.2328 40.5883 12.555 39.3476 12.555C38.1069 12.555 38.5256 14.7013 38.5256 14.7013C38.5256 14.7013 35.8736 20.6132 33.3457 22.1821C32.6789 22.7595 32.3067 23.3996 32.1206 23.8515C31.7173 23.5754 31.2055 23.4122 30.6472 23.4122H27.2508C25.9946 23.4122 24.9866 24.2406 24.9866 25.2447V32.5749C24.9866 33.5916 26.0101 34.4075 27.2508 34.4075H30.6472C31.1125 34.4075 31.5467 34.2945 31.9034 34.0937C31.981 34.0309 32.4307 33.6669 32.4307 32.6502V28.094C32.4307 28.2697 32.4617 33.7422 36.3544 34.0811C37.7502 34.1564 39.4717 34.2192 41.1931 34.1941C42.7595 34.2945 44.4344 34.3071 45.7527 34.0811C50.2502 33.3029 49.1335 30.7675 49.1335 30.7675C51.5684 29.2864 50.1881 27.4413 50.1881 27.4413C52.3283 25.6213 50.2192 24.09 50.2192 24.09Z" fill="#051E56"/>
</svg>
