<svg width="62" height="57" viewBox="0 0 62 57" fill="none" xmlns="http://www.w3.org/2000/svg">
<g clip-path="url(#clip0_20_112)">
<path d="M45.4667 0.00115967C44.3701 0.00117167 43.3185 0.401416 42.5431 1.11385C41.7677 1.82627 41.3321 2.79253 41.3321 3.80005V5.70134H4.13454C3.03802 5.70135 1.98641 6.10157 1.21104 6.81396C0.435664 7.52635 4.35311e-05 8.49256 1.72486e-10 9.50005C-4.95918e-06 9.99892 0.106934 10.4929 0.314712 10.9538C0.52249 11.4147 0.827037 11.8335 1.21096 12.1863C1.59489 12.539 2.05068 12.8188 2.55231 13.0097C3.05394 13.2007 3.59158 13.2989 4.13454 13.2989H41.3321V15.2025C41.3321 16.21 41.7677 17.1762 42.5431 17.8887C43.3185 18.6011 44.3701 19.0013 45.4667 19.0013C46.5632 19.0013 47.6149 18.6011 48.3902 17.8887C49.1656 17.1762 49.6012 16.21 49.6012 15.2025V13.2989H57.8653C58.4082 13.299 58.9459 13.2007 59.4476 13.0098C59.9492 12.8189 60.405 12.5391 60.789 12.1863C61.1729 11.8336 61.4775 11.4148 61.6853 10.9538C61.8931 10.4929 62 9.99893 62 9.50005C62 9.00117 61.893 8.50719 61.6852 8.0463C61.4774 7.58541 61.1728 7.16664 60.7889 6.8139C60.4049 6.46115 59.9491 6.18135 59.4475 5.99046C58.9459 5.79957 58.4082 5.70132 57.8653 5.70134H49.6012V3.80005C49.6012 2.79253 49.1656 1.82627 48.3902 1.11385C47.6149 0.401416 46.5632 0.00117167 45.4667 0.00115967ZM15.5 19.0012C14.957 19.0011 14.4194 19.0994 13.9177 19.2903C13.4161 19.4812 12.9602 19.761 12.5763 20.1138C12.1923 20.4665 11.8878 20.8853 11.68 21.3462C11.4722 21.8072 11.3653 22.3012 11.3653 22.8V24.7012H4.13576C3.59279 24.7012 3.05515 24.7994 2.55352 24.9903C2.05189 25.1813 1.5961 25.4611 1.21218 25.8138C0.828247 26.1666 0.5237 26.5854 0.315923 27.0463C0.108145 27.5072 0.00120591 28.0012 0.00121092 28.5C0.00120591 28.9989 0.108145 29.4929 0.315923 29.9538C0.5237 30.4147 0.828247 30.8335 1.21218 31.1863C1.5961 31.539 2.05189 31.8188 2.55352 32.0097C3.05515 32.2007 3.59279 32.2989 4.13576 32.2989H11.3653V34.2025C11.3653 34.7013 11.4722 35.1953 11.68 35.6563C11.8878 36.1172 12.1923 36.536 12.5763 36.8887C12.9602 37.2415 13.4161 37.5213 13.9177 37.7122C14.4194 37.9031 14.957 38.0014 15.5 38.0013C16.5966 38.0013 17.6482 37.6011 18.4236 36.8887C19.199 36.1762 19.6346 35.21 19.6345 34.2025V32.2989H57.8667C58.4096 32.2989 58.9473 32.2007 59.4489 32.0097C59.9505 31.8188 60.4063 31.539 60.7902 31.1863C61.1742 30.8335 61.4787 30.4147 61.6865 29.9538C61.8943 29.4929 62.0012 28.9989 62.0012 28.5C62.0012 28.0012 61.8943 27.5072 61.6865 27.0463C61.4787 26.5854 61.1742 26.1666 60.7902 25.8138C60.4063 25.4611 59.9505 25.1813 59.4489 24.9903C58.9473 24.7994 58.4096 24.7012 57.8667 24.7012H19.6345V22.8C19.6346 21.7925 19.199 20.8263 18.4236 20.1138C17.6482 19.4014 16.5966 19.0012 15.5 19.0012ZM28.9333 38.0013C27.8368 38.0014 26.7852 38.4016 26.0098 39.114C25.2345 39.8264 24.7988 40.7926 24.7988 41.8V43.7012H4.13576C3.59279 43.7012 3.05515 43.7994 2.55352 43.9903C2.05189 44.1813 1.5961 44.4611 1.21218 44.8138C0.828247 45.1666 0.5237 45.5854 0.315923 46.0463C0.108145 46.5072 0.00120591 47.0012 0.00121092 47.5C0.00125453 48.5075 0.436875 49.4737 1.21225 50.1861C1.98762 50.8985 3.03923 51.2987 4.13576 51.2987H24.7988V53.2025C24.7988 54.2099 25.2345 55.1762 26.0098 55.8885C26.7852 56.6009 27.8368 57.0011 28.9333 57.0012C30.0299 57.0011 31.0815 56.6009 31.8568 55.8885C32.6322 55.1762 33.0678 54.2099 33.0679 53.2025V51.2987H57.8667C58.9632 51.2987 60.0148 50.8985 60.7902 50.1861C61.5655 49.4737 62.0012 48.5075 62.0012 47.5C62.0012 47.0012 61.8943 46.5072 61.6865 46.0463C61.4787 45.5854 61.1742 45.1666 60.7902 44.8138C60.4063 44.4611 59.9505 44.1813 59.4489 43.9903C58.9473 43.7994 58.4096 43.7012 57.8667 43.7012H33.0679V41.8C33.0678 40.7926 32.6322 39.8264 31.8568 39.114C31.0815 38.4016 30.0299 38.0014 28.9333 38.0013Z" fill="#051E56"/>
</g>
<defs>
<clipPath id="clip0_20_112">
<rect width="62" height="57" fill="white"/>
</clipPath>
</defs>
</svg>
