<svg width="38" height="49" viewBox="0 0 38 45" fill="none" xmlns="http://www.w3.org/2000/svg">
<path d="M14.5608 29.5715C14.1478 29.3144 13.9413 28.8 13.7348 28.5428C13.5283 28.2857 13.3218 27.7715 12.9089 27.2572C12.7024 26.7428 12.2894 26.2285 11.4635 26.2285C11.0505 26.2285 10.6375 26.4857 10.4311 26.7428C10.0181 27.7715 10.0181 28.5428 9.81161 29.3144C9.60512 30.0856 9.39864 30.8572 9.39864 31.6285C9.39864 32.1428 9.39864 32.4 9.60512 32.9143L9.81161 33.1715C10.2246 33.6856 10.6375 33.6856 11.0505 33.6856C11.67 33.6856 12.2894 33.4285 12.9089 33.1715C13.3218 32.9143 13.7348 32.9144 14.1478 32.6572C14.3543 32.6572 14.5608 32.4 14.7672 32.1428C14.9737 31.8856 15.1802 31.3715 15.1802 30.8572C15.3867 30.3428 14.9737 29.8285 14.5608 29.5715ZM12.4959 31.3715C11.8765 31.6285 11.4635 31.8857 11.257 31.8857C11.0505 31.8857 11.0505 31.8857 11.0505 31.8857C11.0505 31.8857 11.0505 31.8857 11.0505 31.6285C11.0505 31.3715 11.257 30.6 11.4635 30.0856C11.67 29.5715 11.67 28.8 11.8765 28.5428C12.0829 28.8 12.4959 29.5715 12.7024 29.8285C13.1154 30.3428 13.5283 30.6 13.7348 30.8572C13.7348 30.8572 13.7348 30.8572 13.9413 30.8572C13.5283 31.1144 12.9089 31.3715 12.4959 31.3715ZM32.112 5.65715C29.4278 2.31428 26.5369 0 23.0266 0C21.9942 0 20.9617 0.257146 19.9294 0.514287C16.0062 2.05715 12.9089 4.88572 10.844 10.5428C8.98567 16.2 9.19215 20.5714 8.77918 23.6572C8.15973 31.1144 6.92082 32.6572 6.09488 33.6856C5.06246 34.9715 0.932747 40.3715 0.726262 40.6285C0.726262 40.6285 0.519775 41.1428 0.519775 41.6572C0.519775 42.1715 0.726264 43.2 1.34572 43.9715L1.96517 43.2L1.13923 43.9715C1.75869 44.7428 2.37814 45 2.99759 45C3.41056 45 3.61704 44.7428 3.82353 44.7428H4.03003C4.23652 44.4856 8.5727 39.0857 9.60512 38.0572C10.4311 37.0285 11.8765 35.4856 17.658 34.7144C20.1359 34.4572 23.8526 34.7143 28.1888 32.1428C32.7314 29.8285 35.0027 25.9715 36.2417 20.8286C36.6546 19.5428 36.6546 18.2572 36.6546 16.9714C36.6546 12.6 34.7963 8.74287 32.112 5.65715ZM34.7963 20.3143C33.7639 24.9428 31.9055 28.0285 27.7759 30.3428C23.6462 32.6572 20.3423 32.4 17.658 32.6572C11.67 33.4285 9.60512 35.2285 8.5727 36.7715C7.74676 37.8 4.03003 42.4285 3.20408 43.4572C2.99759 43.4572 2.79111 43.4572 2.37814 42.9428C1.96517 42.4285 1.96517 42.1715 1.96517 42.1715C2.79111 41.1428 6.50785 36.5144 7.33379 35.4856C8.36621 34.2 9.81161 31.8856 10.6375 24.1715C10.844 20.8286 10.844 16.7143 12.4959 11.5714C14.3543 6.42856 16.8321 4.11428 20.5488 2.82857C21.3748 2.57143 22.4072 2.31428 23.233 2.31428C26.1239 2.31428 28.8082 4.11428 31.286 7.45715C33.7639 10.5428 35.4157 13.8857 35.4157 17.4857C35.2092 18 35.0027 19.0286 34.7963 20.3143ZM20.5488 8.22857C20.9617 7.71428 20.9617 6.68572 20.5488 5.91428C20.1359 5.4 19.31 5.4 18.6904 5.91428C18.2775 6.42857 18.2775 7.45715 18.6904 8.22857C19.31 8.74287 20.1359 8.74287 20.5488 8.22857ZM23.4397 11.5714C23.8526 11.0572 23.8526 10.0286 23.4397 9.25715C23.0266 8.74285 22.2007 8.74285 21.5813 9.25715C21.1682 9.77144 21.1682 10.8 21.5813 11.5714C21.9942 12.3428 22.8201 12.3428 23.4397 11.5714ZM26.1239 12.8572C25.711 12.3428 24.885 12.3428 24.2656 12.8572C23.8526 13.3714 23.8526 14.4 24.2656 15.1714C24.6785 15.6857 25.5045 15.6857 26.1239 15.1714C26.7433 14.4 26.7433 13.6286 26.1239 12.8572ZM27.1563 16.4571C26.7433 16.9714 26.7433 18 27.1563 18.7714C27.5694 19.2857 28.3953 19.2857 29.0147 18.7714C29.4278 18.2572 29.4278 17.2286 29.0147 16.4571C28.6017 15.6857 27.7759 15.6857 27.1563 16.4571ZM30.0472 19.8C29.6342 20.3143 29.6342 21.3428 30.0472 22.1143C30.4601 22.6285 31.286 22.6285 31.9055 22.1143C32.3185 21.6 32.3185 20.5714 31.9055 19.8C31.286 19.2857 30.4601 19.2857 30.0472 19.8ZM19.7229 12.8572C20.1359 12.3428 20.1359 11.3143 19.7229 10.5428C19.31 10.0286 18.4839 10.0286 17.8645 10.5428C17.4516 11.0572 17.4516 12.0857 17.8645 12.8572C18.2775 13.3714 19.1033 13.3714 19.7229 12.8572ZM22.4072 14.1428C21.9942 13.6286 21.1682 13.6286 20.5488 14.1428C20.1359 14.6572 20.1359 15.6857 20.5488 16.4571C20.9617 16.9714 21.7878 16.9714 22.4072 16.4571C23.0266 15.6857 23.0266 14.6572 22.4072 14.1428ZM23.4397 17.4857C23.0266 18 23.0266 19.0286 23.4397 19.8C23.8526 20.3143 24.6785 20.3143 25.2981 19.8C25.711 19.2857 25.711 18.2572 25.2981 17.4857C24.6785 16.9714 23.8526 16.9714 23.4397 17.4857ZM26.3304 21.0857C25.9175 21.6 25.9175 22.6285 26.3304 23.4C26.7433 23.9143 27.5694 23.9143 28.1888 23.4C28.6017 22.8856 28.6017 21.8572 28.1888 21.0857C27.5694 20.5714 26.7433 20.5714 26.3304 21.0857ZM24.2656 6.94287C24.6785 6.42857 24.6785 5.4 24.2656 4.62857C23.8526 4.11428 23.0266 4.11428 22.4072 4.62857C21.9942 5.14287 21.9942 6.17143 22.4072 6.94287C23.0266 7.45715 23.8526 7.45715 24.2656 6.94287ZM27.1563 10.5428C27.5694 10.0286 27.5694 9 27.1563 8.22857C26.7433 7.71428 25.9175 7.71428 25.2981 8.22857C24.885 8.74287 24.885 9.77143 25.2981 10.5428C25.9175 11.0572 26.5369 11.0572 27.1563 10.5428ZM30.0472 13.8857C30.4601 13.3714 30.4601 12.3428 30.0472 11.5714C29.6342 11.0572 28.8082 11.0572 28.1888 11.5714C27.7759 12.0857 27.7759 13.1143 28.1888 13.8857C28.6017 14.6572 29.4278 14.6572 30.0472 13.8857ZM30.873 17.4857C31.286 18 32.112 18 32.7314 17.4857C33.1443 16.9714 33.1443 15.9428 32.7314 15.1714C32.3185 14.6572 31.4926 14.6572 30.873 15.1714C30.4601 15.9428 30.4601 16.9714 30.873 17.4857ZM15.7997 13.8857C16.2127 13.3714 16.2127 12.3428 15.7997 11.5714C15.3867 11.0572 14.5608 11.0572 13.9413 11.5714C13.5283 12.0857 13.5283 13.1143 13.9413 13.8857C14.5608 14.6572 15.3867 14.6572 15.7997 13.8857ZM18.6904 17.4857C19.1033 16.9714 19.1033 15.9428 18.6904 15.1714C18.2775 14.6572 17.4516 14.6572 16.8321 15.1714C16.4191 15.6857 16.4191 16.7143 16.8321 17.4857C17.4516 18 18.2775 18 18.6904 17.4857ZM19.7229 18.7714C19.31 19.2857 19.31 20.3143 19.7229 21.0857C20.1359 21.6 20.9617 21.6 21.5813 21.0857C21.9942 20.5714 21.9942 19.5428 21.5813 18.7714C20.9617 18 20.1359 18 19.7229 18.7714ZM22.6136 22.3714C22.2007 22.8856 22.2007 23.9144 22.6136 24.6856C23.0266 25.2 23.8526 25.2 24.472 24.6856C24.885 24.1715 24.885 23.1428 24.472 22.3714C23.8526 21.6 23.0266 21.6 22.6136 22.3714ZM25.2981 25.7144C24.885 26.2285 24.885 27.2572 25.2981 28.0285C25.711 28.5428 26.5369 28.5428 27.1563 28.0285C27.5694 27.5143 27.5694 26.4857 27.1563 25.7144C26.5369 25.2 25.9175 25.2 25.2981 25.7144ZM14.9737 18.7714C15.3867 18.2572 15.3867 17.2286 14.9737 16.4571C14.5608 15.9428 13.7348 15.9428 13.1154 16.4571C12.7024 16.9714 12.7024 18 13.1154 18.7714C13.5283 19.2857 14.3543 19.2857 14.9737 18.7714ZM16.0061 19.8C15.5932 20.3143 15.5932 21.3428 16.0061 22.1143C16.4191 22.6285 17.2451 22.6285 17.8645 22.1143C18.2775 21.6 18.2775 20.5714 17.8645 19.8C17.2451 19.2857 16.4191 19.2857 16.0061 19.8ZM18.6904 23.4C18.2775 23.9143 18.2775 24.9428 18.6904 25.7144C19.1033 26.2285 19.9294 26.2285 20.5488 25.7144C20.9617 25.2 20.9617 24.1715 20.5488 23.4C20.1359 22.8856 19.31 22.8856 18.6904 23.4ZM21.5813 27C21.1682 27.5144 21.1682 28.5428 21.5813 29.3144C21.9942 29.8285 22.8201 29.8285 23.4397 29.3144C23.8526 28.8 23.8526 27.7715 23.4397 27C22.8201 26.2285 21.9942 26.2285 21.5813 27ZM13.9413 23.4C14.3543 22.8856 14.3543 21.8572 13.9413 21.0857C13.5283 20.5714 12.7024 20.5714 12.0829 21.0857C11.67 21.6 11.67 22.6285 12.0829 23.4C12.7024 23.9143 13.5283 23.9143 13.9413 23.4ZM14.9737 24.6856C14.5608 25.2 14.5608 26.2285 14.9737 27C15.3867 27.5144 16.2127 27.5144 16.8321 27C17.2451 26.4856 17.2451 25.4572 16.8321 24.6856C16.2127 23.9144 15.5932 23.9144 14.9737 24.6856ZM17.8645 28.0285C17.4516 28.5428 17.4516 29.5715 17.8645 30.3428C18.2775 30.8572 19.1033 30.8572 19.7229 30.3428C20.1359 29.8285 20.1359 28.8 19.7229 28.0285C19.1033 27.5143 18.2775 27.5143 17.8645 28.0285Z" fill="#6A6B7C"/>
</svg>
