<svg width="125" height="19" viewBox="0 0 125 19" fill="none" xmlns="http://www.w3.org/2000/svg">
<path d="M18.5297 6.63502L13.3305 6.13409C13.0027 6.10373 12.7197 5.89122 12.5856 5.57245L10.7234 0.973042C10.4255 0.214064 9.36775 0.214064 9.0698 0.973042L7.22251 5.57245C7.10333 5.89122 6.80538 6.10373 6.47764 6.13409L1.27841 6.63502C0.50374 6.71091 0.190893 7.69758 0.771895 8.22887L4.68994 11.7353C4.94319 11.963 5.04748 12.297 4.97299 12.6309L3.79609 17.5491C3.61732 18.3233 4.43668 18.9608 5.12196 18.551L9.45714 15.9553C9.74019 15.7883 10.0828 15.7883 10.3659 15.9553L14.7011 18.551C15.3863 18.9608 16.2057 18.3385 16.0269 17.5491L14.8649 12.6309C14.7904 12.297 14.8947 11.963 15.148 11.7353L19.066 8.22887C19.6321 7.69758 19.3044 6.71091 18.5297 6.63502Z" fill="#FC9B09"/>
<path d="M44.7511 6.63502L39.5519 6.13409C39.2241 6.10373 38.9411 5.89122 38.807 5.57245L36.9448 0.973042C36.6468 0.214064 35.5891 0.214064 35.2912 0.973042L33.4439 5.57245C33.3247 5.89122 33.0268 6.10373 32.699 6.13409L27.4998 6.63502C26.7251 6.71091 26.4123 7.69758 26.9933 8.22887L30.9113 11.7353C31.1646 11.963 31.2689 12.297 31.1944 12.6309L30.0175 17.5491C29.8387 18.3233 30.6581 18.9608 31.3433 18.551L35.6785 15.9553C35.9616 15.7883 36.3042 15.7883 36.5873 15.9553L40.9224 18.551C41.6077 18.9608 42.4271 18.3385 42.2483 17.5491L41.0863 12.6309C41.0118 12.297 41.1161 11.963 41.3694 11.7353L45.2874 8.22887C45.8535 7.69758 45.5258 6.71091 44.7511 6.63502Z" fill="#FC9B09"/>
<path d="M70.9725 6.63502L65.7732 6.13409C65.4455 6.10373 65.1624 5.89122 65.0284 5.57245L63.1662 0.973042C62.8682 0.214064 61.8105 0.214064 61.5126 0.973042L59.6653 5.57245C59.5461 5.89122 59.2481 6.10373 58.9204 6.13409L53.7212 6.63502C52.9465 6.71091 52.6336 7.69758 53.2146 8.22887L57.1327 11.7353C57.3859 11.963 57.4902 12.297 57.4157 12.6309L56.2388 17.5491C56.0601 18.3233 56.8794 18.9608 57.5647 18.551L61.8999 15.9553C62.1829 15.7883 62.5256 15.7883 62.8086 15.9553L67.1438 18.551C67.8291 18.9608 68.6485 18.3385 68.4697 17.5491L67.3077 12.6309C67.2332 12.297 67.3375 11.963 67.5907 11.7353L71.5088 8.22887C72.0749 7.69758 71.7471 6.71091 70.9725 6.63502Z" fill="#FC9B09"/>
<path d="M97.1938 6.63502L91.9946 6.13409C91.6669 6.10373 91.3838 5.89122 91.2497 5.57245L89.3875 0.973042C89.0896 0.214064 88.0319 0.214064 87.7339 0.973042L85.8866 5.57245C85.7675 5.89122 85.4695 6.10373 85.1418 6.13409L79.9425 6.63502C79.1679 6.71091 78.855 7.69758 79.436 8.22887L83.3541 11.7353C83.6073 11.963 83.7116 12.297 83.6371 12.6309L82.4602 17.5491C82.2814 18.3233 83.1008 18.9608 83.7861 18.551L88.1213 15.9553C88.4043 15.7883 88.747 15.7883 89.03 15.9553L93.3652 18.551C94.0505 18.9608 94.8698 18.3385 94.6911 17.5491L93.5291 12.6309C93.4546 12.297 93.5588 11.963 93.8121 11.7353L97.7301 8.22887C98.2963 7.69758 97.9685 6.71091 97.1938 6.63502Z" fill="#FC9B09"/>
<path d="M123.415 6.63502L118.216 6.13409C117.888 6.10373 117.605 5.89122 117.471 5.57245L115.609 0.973042C115.311 0.214064 114.253 0.214064 113.955 0.973042L112.108 5.57245C111.989 5.89122 111.691 6.10373 111.363 6.13409L106.164 6.63502C105.389 6.71091 105.076 7.69758 105.657 8.22887L109.575 11.7353C109.829 11.963 109.933 12.297 109.858 12.6309L108.682 17.5491C108.503 18.3233 109.322 18.9608 110.007 18.551L114.343 15.9553C114.626 15.7883 114.968 15.7883 115.251 15.9553L119.587 18.551C120.272 18.9608 121.091 18.3385 120.912 17.5491L119.75 12.6309C119.676 12.297 119.78 11.963 120.033 11.7353L123.952 8.22887C124.518 7.69758 124.19 6.71091 123.415 6.63502Z" fill="#FC9B09"/>
</svg>
