<svg width="83" height="61" viewBox="0 0 83 61" fill="none" xmlns="http://www.w3.org/2000/svg">
<g clip-path="url(#clip0_20_109)">
<path d="M41.5 3.8125C34.6209 3.8125 28.0236 5.82086 23.1594 9.39578C18.2952 12.9707 15.5625 17.8193 15.5625 22.875V26.6875H20.75C22.1258 26.6875 23.4453 27.0892 24.4181 27.8042C25.391 28.5191 25.9375 29.4889 25.9375 30.5V41.9375C25.9375 42.9486 25.391 43.9184 24.4181 44.6333C23.4453 45.3483 22.1258 45.75 20.75 45.75H15.5625C14.1867 45.75 12.8672 45.3483 11.8944 44.6333C10.9215 43.9184 10.375 42.9486 10.375 41.9375V22.875C10.375 19.871 11.1801 16.8964 12.7442 14.1211C14.3084 11.3458 16.6011 8.82407 19.4913 6.69993C22.3815 4.57579 25.8127 2.89083 29.589 1.74126C33.3652 0.591679 37.4126 0 41.5 0C45.5874 0 49.6348 0.591679 53.411 1.74126C57.1873 2.89083 60.6185 4.57579 63.5087 6.69993C66.3989 8.82407 68.6916 11.3458 70.2557 14.1211C71.8199 16.8964 72.625 19.871 72.625 22.875V45.75C72.625 48.2778 71.2587 50.7022 68.8265 52.4896C66.3944 54.2771 63.0958 55.2812 59.6562 55.2812H48.5861C48.1308 55.8608 47.476 56.3421 46.6874 56.6767C45.8988 57.0113 45.0043 57.1875 44.0938 57.1875H38.9062C37.5304 57.1875 36.211 56.7858 35.2381 56.0708C34.2653 55.3559 33.7188 54.3861 33.7188 53.375C33.7188 52.3639 34.2653 51.3941 35.2381 50.6792C36.211 49.9642 37.5304 49.5625 38.9062 49.5625H44.0938C45.0043 49.5625 45.8988 49.7387 46.6874 50.0733C47.476 50.4079 48.1308 50.8892 48.5861 51.4688H59.6562C61.72 51.4688 63.6992 50.8662 65.1584 49.7938C66.6177 48.7213 67.4375 47.2667 67.4375 45.75H62.25C60.8742 45.75 59.5547 45.3483 58.5819 44.6333C57.609 43.9184 57.0625 42.9486 57.0625 41.9375V30.5C57.0625 29.4889 57.609 28.5191 58.5819 27.8042C59.5547 27.0892 60.8742 26.6875 62.25 26.6875H67.4375V22.875C67.4375 20.3717 66.7666 17.8929 65.4631 15.5801C64.1596 13.2673 62.2491 11.1659 59.8406 9.39578C57.4321 7.62566 54.5727 6.22153 51.4258 5.26355C48.279 4.30557 44.9062 3.8125 41.5 3.8125Z" fill="#051E56"/>
</g>
<defs>
<clipPath id="clip0_20_109">
<rect width="83" height="61" fill="white"/>
</clipPath>
</defs>
</svg>
