<svg width="79" height="62" viewBox="0 0 79 62" fill="none" xmlns="http://www.w3.org/2000/svg">
<g clip-path="url(#clip0_18_75)">
<path fill-rule="evenodd" clip-rule="evenodd" d="M70.6212 35.3226H58.6515C57.3301 35.3226 56.2576 36.1555 56.2576 37.1817V44.6181C56.2576 45.6462 57.3301 46.4772 58.6515 46.4772H70.6212V55.7726C70.6212 56.8007 69.5487 57.6317 68.2273 57.6317H10.7727C9.45127 57.6317 8.37879 56.8007 8.37879 55.7726V20.4499H68.2273C69.5487 20.4499 70.6212 21.2809 70.6212 22.309V35.3226ZM70.6212 40.8999V42.759H61.0455V40.8999V39.0408H70.6212V40.8999ZM65.8333 5.57717V16.7317H19.1515L65.8333 5.57717ZM70.6212 16.7317V3.71808C70.6212 2.69 70.0562 2.1211 68.8258 1.7437C67.8778 1.45182 66.9561 1.6266 65.8333 1.85899L3.59091 16.7317V57.6317C3.59091 59.6842 5.73588 61.3499 8.37879 61.3499H70.6212C73.2641 61.3499 75.4091 59.6842 75.4091 57.6317V20.4499C75.4091 18.3975 73.2641 16.7317 70.6212 16.7317Z" fill="#051E56"/>
</g>
<defs>
<clipPath id="clip0_18_75">
<rect width="79" height="61.35" fill="white"/>
</clipPath>
</defs>
</svg>
